<svg width="485" height="387" viewBox="0 0 485 387" fill="none" xmlns="http://www.w3.org/2000/svg">
<ellipse cx="242.5" cy="287.635" rx="242.5" ry="99.3649" fill="#BFD75F"/>
<g clip-path="url(#clip0_26_93)">
<path d="M415.238 194.075L425.417 184.411C424.489 178.005 423.182 171.654 421.5 165.388L415.699 168.174L420.911 163.226C418.751 155.497 416.805 150.509 416.805 150.509C416.805 150.509 396.291 170.331 385.689 193.576L392.258 209.963L383.27 199.429C382.245 202.179 381.403 204.988 380.75 207.838C374.263 236.601 378.905 261.927 391.117 264.407C403.329 266.887 418.487 245.581 424.974 216.818C426.985 207.902 426.963 198.142 425.977 188.917L415.238 194.075Z" fill="#468431"/>
<path d="M445.486 214.146L459.464 210.866C462.16 204.927 464.5 198.849 466.475 192.66L459.991 192.2L467.148 190.521C469.509 182.845 470.56 177.62 470.56 177.62C470.56 177.62 442.202 184.528 420.463 199.226L417.159 216.476L415.204 203.05C412.828 204.902 410.577 206.894 408.465 209.013C387.244 230.453 377.42 254.41 386.523 262.523C395.626 270.635 420.209 259.831 441.431 238.391C448.01 231.744 453.308 223.378 457.489 214.998L445.486 214.146Z" fill="#AFC90C"/>
<path d="M312.083 94.9996L315.517 69.427C306.338 60.882 296.659 52.8349 286.525 45.3243L281.257 55.8373L283.016 42.7441C270.388 33.575 261.414 28.2617 261.414 28.2617C261.414 28.2617 254.916 80.3177 267.375 126.624L297.117 143.885L270.886 138.009C272.702 143.237 274.863 148.351 277.357 153.321C302.671 203.354 340.413 236.069 361.656 226.392C382.9 216.716 379.601 168.311 354.287 118.278C346.439 102.768 334.531 88.2246 321.835 75.5373L312.083 94.9996Z" fill="#007A36"/>
<path d="M381.649 91.821L398.519 71.6139C395.317 59.7972 391.415 48.1612 386.832 36.7615L376.595 43.1775L385.233 32.8315C379.418 18.7888 374.63 9.83887 374.63 9.83887C374.63 9.83887 340.71 51.2143 326.149 96.9655L342.207 126.329L322.953 108.433C321.66 113.799 320.724 119.237 320.151 124.715C314.564 179.961 329.051 226.478 352.509 228.613C375.966 230.749 399.51 187.694 405.096 132.448C406.828 115.321 404.556 97.0313 400.599 79.9433L381.649 91.821Z" fill="#76B82A"/>
<path d="M70.6453 98.7582L68.9387 71.9258C57.7889 64.8593 46.2278 58.3951 34.3107 52.564L31.0615 64.3043L30.1878 50.5661C15.3765 43.4946 5.09633 39.7017 5.09633 39.7017C5.09633 39.7017 9.0749 94.2314 31.3006 139.384L65.2997 151.597L37.2237 150.402C40.153 155.424 43.4123 160.266 46.9823 164.9C83.1402 211.505 128.494 238.081 148.282 224.259C168.07 210.437 154.8 161.451 118.642 114.845C107.433 100.397 92.2605 87.6875 76.6603 77.024L70.6453 98.7582Z" fill="#65B331"/>
<path d="M141.271 82.7045L154.427 58.8978C148.732 47.3799 142.357 36.176 135.332 25.3394L126.154 33.796L132.891 21.6069C124.064 8.28905 117.33 0 117.33 0C117.33 0 91.0297 48.6312 85.4586 98.1845L107.91 125.315L84.5268 110.522C84.2986 116.257 84.4509 122.001 84.9827 127.719C90.5466 185.349 114.894 230.344 139.363 228.217C163.833 226.09 179.158 177.647 173.594 120.017C171.87 102.151 165.805 83.829 158.26 67.0493L141.271 82.7045Z" fill="#007A36"/>
<path d="M214.874 323.6C224.456 323.6 232.223 321.494 232.223 318.897C232.223 316.299 224.456 314.193 214.874 314.193C205.292 314.193 197.524 316.299 197.524 318.897C197.524 321.494 205.292 323.6 214.874 323.6Z" fill="#E6E6E6"/>
<path d="M403.736 341.944C413.318 341.944 421.085 339.838 421.085 337.24C421.085 334.642 413.318 332.537 403.736 332.537C394.154 332.537 386.386 334.642 386.386 337.24C386.386 339.838 394.154 341.944 403.736 341.944Z" fill="#E6E6E6"/>
<path d="M439.922 303.375C449.504 303.375 457.271 301.269 457.271 298.672C457.271 296.074 449.504 293.968 439.922 293.968C430.34 293.968 422.572 296.074 422.572 298.672C422.572 301.269 430.34 303.375 439.922 303.375Z" fill="#E6E6E6"/>
<path d="M368.789 289.735C376.044 289.735 381.925 288.14 381.925 286.174C381.925 284.207 376.044 282.612 368.789 282.612C361.534 282.612 355.653 284.207 355.653 286.174C355.653 288.14 361.534 289.735 368.789 289.735Z" fill="#E6E6E6"/>
<path d="M84.2565 286.376C89.0475 286.376 92.9313 285.233 92.9313 283.822C92.9313 282.412 89.0475 281.269 84.2565 281.269C79.4656 281.269 75.5818 282.412 75.5818 283.822C75.5818 285.233 79.4656 286.376 84.2565 286.376Z" fill="#E6E6E6"/>
<path d="M50.0532 315.067C54.8441 315.067 58.7279 313.923 58.7279 312.513C58.7279 311.103 54.8441 309.96 50.0532 309.96C45.2622 309.96 41.3784 311.103 41.3784 312.513C41.3784 313.923 45.2622 315.067 50.0532 315.067Z" fill="#E6E6E6"/>
<path d="M50.0532 269.913C54.8441 269.913 58.7279 268.77 58.7279 267.36C58.7279 265.95 54.8441 264.807 50.0532 264.807C45.2622 264.807 41.3784 265.95 41.3784 267.36C41.3784 268.77 45.2622 269.913 50.0532 269.913Z" fill="#E6E6E6"/>
<path d="M421.518 275.603L337.466 272.781L293.141 276.793L217.413 283.646L188.915 286.224L122.917 307.107C122.652 307.191 122.368 307.202 122.097 307.138C121.825 307.075 121.579 306.94 121.385 306.749C121.192 306.558 121.059 306.319 121.003 306.059C120.947 305.799 120.97 305.53 121.068 305.282L121.073 305.277L132.519 276.553L131.314 275.711L99.8175 253.751L99.649 253.633L58.8082 247.726C58.2332 247.642 57.6902 247.421 57.2303 247.082C56.7705 246.744 56.4089 246.301 56.1798 245.794C55.9506 245.286 55.8614 244.732 55.9206 244.183C55.9798 243.634 56.1854 243.108 56.5181 242.655L118.719 157.964L151.405 113.469L154.949 108.639L290.92 106.856L423.674 271.643C423.973 272.014 424.154 272.458 424.198 272.923C424.241 273.389 424.144 273.856 423.918 274.271C423.692 274.686 423.346 275.032 422.921 275.267C422.496 275.503 422.01 275.62 421.518 275.603Z" fill="#00BFA6"/>
<path opacity="0.2" d="M186.8 115.512L131.313 275.712L99.8198 253.751L118.72 157.966L151.311 113.363L151.404 113.467L186.8 115.512Z" fill="black"/>
<path d="M137.271 176.882C130.975 191.243 128.746 203.239 121.278 201.073C111.054 198.107 121.789 187.617 128.085 173.256C134.381 158.895 138.83 147.878 144.078 149.065C153.863 151.278 143.567 162.52 137.271 176.882Z" fill="#3F3D56"/>
<path d="M151.536 148.135C151.534 147.185 151.335 146.244 150.951 145.366C150.566 144.489 150.002 143.692 149.293 143.021C148.584 142.35 147.742 141.818 146.816 141.456C145.89 141.093 144.898 140.908 143.896 140.909C143.724 140.909 143.554 140.917 143.384 140.928L136.186 140.085C135.36 139.806 134.49 139.664 133.613 139.666C133.371 139.666 133.132 139.679 132.895 139.7L132.618 139.668L132.61 139.732C130.921 139.947 129.357 140.693 128.166 141.85C126.976 143.008 126.228 144.51 126.043 146.118C125.857 147.725 126.244 149.345 127.143 150.72C128.041 152.094 129.399 153.144 130.999 153.7L130.984 153.831L131.692 153.906C132.327 154.063 132.981 154.142 133.637 154.141C133.71 154.141 133.782 154.138 133.854 154.136L141.213 154.918C142.078 155.228 142.995 155.386 143.92 155.384C144.265 155.383 144.61 155.36 144.951 155.315L145.579 155.382L145.582 155.207C147.274 154.846 148.786 153.949 149.868 152.663C150.95 151.377 151.538 149.78 151.536 148.135Z" fill="#00BFA6"/>
<path opacity="0.2" d="M151.536 148.135C151.534 147.185 151.335 146.244 150.951 145.366C150.566 144.489 150.002 143.692 149.293 143.021C148.584 142.35 147.742 141.818 146.816 141.456C145.89 141.093 144.898 140.908 143.896 140.909C143.724 140.909 143.554 140.917 143.384 140.928L136.186 140.085C135.36 139.806 134.49 139.664 133.613 139.666C133.371 139.666 133.132 139.679 132.895 139.7L132.618 139.668L132.61 139.732C130.921 139.947 129.357 140.693 128.166 141.85C126.976 143.008 126.228 144.51 126.043 146.118C125.857 147.725 126.244 149.345 127.143 150.72C128.041 152.094 129.399 153.144 130.999 153.7L130.984 153.831L131.692 153.906C132.327 154.063 132.981 154.142 133.637 154.141C133.71 154.141 133.782 154.138 133.854 154.136L141.213 154.918C142.078 155.228 142.995 155.386 143.92 155.384C144.265 155.383 144.61 155.36 144.951 155.315L145.579 155.382L145.582 155.207C147.274 154.846 148.786 153.949 149.868 152.663C150.95 151.377 151.538 149.78 151.536 148.135Z" fill="white"/>
<path d="M49.6666 247.005L48.7855 246.566C71.3521 205.754 135.179 118.555 135.821 117.679L136.638 118.218C135.996 119.094 72.2044 206.245 49.6666 247.005Z" fill="#3F3D56"/>
<path d="M118.791 308.167L117.831 307.919C118.296 306.297 164.519 145.418 180.568 118.279L181.435 118.741C165.447 145.779 119.256 306.546 118.791 308.167Z" fill="#3F3D56"/>
<path d="M427.586 276.976C402.943 238.458 309.883 119.166 308.945 117.966L309.745 117.404C310.683 118.605 403.77 237.932 428.436 276.487L427.586 276.976Z" fill="#3F3D56"/>
<path d="M117 312.449C118.923 312.446 120.479 310.542 120.475 308.196C120.471 305.849 118.909 303.95 116.986 303.953C115.062 303.956 113.507 305.86 113.511 308.206C113.515 310.552 115.077 312.452 117 312.449Z" fill="#3F3D56"/>
<path d="M49.8928 248.83C51.816 248.827 53.3718 246.923 53.3678 244.576C53.3638 242.23 51.8016 240.331 49.8784 240.334C47.9552 240.336 46.3994 242.241 46.4034 244.587C46.4074 246.933 47.9696 248.833 49.8928 248.83Z" fill="#3F3D56"/>
<path d="M428.509 279.097C430.432 279.094 431.988 277.189 431.984 274.843C431.98 272.497 430.417 270.597 428.494 270.6C426.571 270.603 425.015 272.507 425.019 274.854C425.023 277.2 426.585 279.099 428.509 279.097Z" fill="#3F3D56"/>
<path d="M131.953 122.365L319.636 124.274C319.506 109.729 313.323 95.8227 302.435 85.5841C291.548 75.3456 276.837 69.6046 261.508 69.6118L189.881 69.7212C159.921 69.7669 134.553 91.9978 132.128 120.332L131.953 122.365Z" fill="#3F3D56"/>
<path opacity="0.2" d="M296.859 181.232H228.264C227.428 181.232 226.601 181.388 225.831 181.693C225.06 181.999 224.36 182.446 223.773 183.009C223.186 183.573 222.723 184.242 222.411 184.977C222.098 185.712 221.943 186.498 221.953 187.291L222.013 192.05L222.622 243.008L222.632 243.991L222.652 245.614L222.672 247.199L222.786 256.752C222.805 258.306 223.46 259.793 224.612 260.898C225.765 262.003 227.324 262.64 228.962 262.673C229.131 262.673 229.305 262.669 229.478 262.659L245.767 261.719L269.332 260.355L277.65 259.875L279.504 259.767L292.467 259.019H292.472L297.24 258.741C298.844 258.647 300.35 257.976 301.452 256.866C302.553 255.755 303.167 254.288 303.169 252.763V187.22C303.167 185.633 302.502 184.111 301.319 182.988C300.136 181.865 298.532 181.234 296.859 181.232Z" fill="black"/>
<path d="M310.984 172.91C310.736 172.928 310.496 172.999 310.28 173.116C310.064 173.234 309.878 173.395 309.736 173.589L302.177 173.6V171.698C302.176 170.111 301.51 168.589 300.327 167.467C299.144 166.344 297.54 165.713 295.867 165.711H227.272C226.437 165.71 225.61 165.867 224.839 166.172C224.068 166.477 223.369 166.924 222.782 167.488C222.195 168.052 221.732 168.72 221.419 169.455C221.107 170.19 220.951 170.977 220.962 171.769L220.986 173.724L216.112 173.732C215.845 173.462 215.478 173.301 215.088 173.282C213.38 173.284 212.001 176.825 212.008 181.189C212.016 185.553 213.407 189.089 215.115 189.087C215.413 189.056 215.698 188.958 215.947 188.8C216.197 188.642 216.402 188.43 216.547 188.181L309.76 188.039C309.903 188.232 310.09 188.393 310.306 188.51C310.522 188.627 310.763 188.697 311.011 188.715C312.72 188.712 314.099 185.172 314.091 180.807C314.084 176.443 312.693 172.907 310.984 172.91Z" fill="#00BFA6"/>
<path opacity="0.2" d="M310.984 172.91C310.736 172.928 310.496 172.999 310.28 173.116C310.064 173.234 309.878 173.395 309.736 173.589L302.177 173.6V171.698C302.176 170.111 301.51 168.589 300.327 167.467C299.144 166.344 297.54 165.713 295.867 165.711H227.272C226.437 165.71 225.61 165.867 224.839 166.172C224.068 166.477 223.369 166.924 222.782 167.488C222.195 168.052 221.732 168.72 221.419 169.455C221.107 170.19 220.951 170.977 220.962 171.769L220.986 173.724L216.112 173.732C215.845 173.462 215.478 173.301 215.088 173.282C213.38 173.284 212.001 176.825 212.008 181.189C212.015 185.553 213.407 189.089 215.115 189.087C215.413 189.056 215.698 188.958 215.947 188.8C216.197 188.642 216.402 188.43 216.547 188.181L309.76 188.039C309.903 188.232 310.09 188.393 310.306 188.51C310.522 188.627 310.763 188.697 311.011 188.715C312.72 188.712 314.099 185.172 314.091 180.807C314.084 176.443 312.693 172.907 310.984 172.91Z" fill="white"/>
<path d="M303.305 272.83C302.851 273.233 302.305 273.531 301.709 273.7C301.114 273.87 300.485 273.906 299.872 273.807C299.259 273.708 298.678 273.475 298.176 273.127C297.673 272.78 297.263 272.327 296.975 271.803L293.246 265.009L294.73 261.959L302.724 266.814C303.242 267.128 303.677 267.55 303.996 268.048C304.315 268.546 304.51 269.107 304.566 269.687C304.622 270.267 304.538 270.852 304.319 271.397C304.101 271.942 303.754 272.432 303.305 272.83Z" fill="#FFB8B8"/>
<path d="M319.415 312.469C319.326 311.684 318.932 310.959 318.309 310.435C317.687 309.912 316.88 309.628 316.048 309.638C315.291 309.634 314.553 309.87 313.954 310.311C313.355 310.752 312.93 311.37 312.746 312.068L309.443 327.286C309.334 327.731 309.277 328.186 309.274 328.642C309.274 332.074 312.301 334.459 316.048 334.459C319.796 334.459 322.824 332.074 322.824 328.642C322.822 328.093 322.744 327.546 322.59 327.015L319.415 312.469Z" fill="#3F3D56"/>
<path d="M344.397 319.276C344.061 318.996 343.7 318.746 343.317 318.527L330.7 310.16C329.471 309.429 328.159 309.449 327.207 310.333C326.791 310.708 326.527 311.21 326.461 311.751C326.394 312.292 326.53 312.838 326.844 313.294L336.371 325.175C336.588 325.463 336.831 325.733 337.097 325.982C338.748 327.733 342.41 327.83 344.422 325.982C346.407 324.104 346.384 320.757 344.397 319.276Z" fill="#3F3D56"/>
<path d="M353.878 306.882H341.1C340.69 306.867 340.291 307.007 339.989 307.27C339.687 307.533 339.507 307.898 339.488 308.287C339.482 308.645 339.602 308.995 339.829 309.281C340.057 309.567 340.379 309.772 340.744 309.864L352.799 313.403C354.55 313.79 356.909 312.309 356.909 310.46C356.909 308.108 355.53 306.882 353.878 306.882Z" fill="#3F3D56"/>
<path d="M293.073 308.28C293.06 308.081 293.005 307.885 292.911 307.706C292.817 307.527 292.686 307.367 292.527 307.236C292.367 307.105 292.181 307.006 291.981 306.944C291.78 306.882 291.569 306.859 291.358 306.875H278.579C276.97 306.875 275.612 308.525 275.612 310.374C275.612 312.223 277.903 313.79 279.659 313.403L291.895 309.864C292.262 309.783 292.585 309.577 292.802 309.285C293.019 308.993 293.116 308.635 293.073 308.28Z" fill="#3F3D56"/>
<path d="M301.843 310.174L289.222 318.505C288.83 318.714 288.465 318.965 288.134 319.254C287.206 320.072 286.659 321.207 286.613 322.409C286.567 323.611 287.026 324.78 287.889 325.661C287.968 325.741 288.049 325.818 288.134 325.893C289.124 326.78 290.434 327.274 291.796 327.274C293.157 327.274 294.468 326.78 295.458 325.893C295.727 325.648 295.97 325.378 296.183 325.087L305.718 313.274C306.037 312.823 306.176 312.28 306.109 311.741C306.043 311.202 305.775 310.704 305.355 310.336C304.884 309.92 304.273 309.675 303.63 309.645C302.987 309.616 302.354 309.803 301.843 310.174Z" fill="#3F3D56"/>
<path d="M321.475 293.894C321.621 293.69 321.703 293.45 321.709 293.203C321.709 291.744 318.68 290.731 314.933 290.731C311.186 290.731 308.159 291.744 308.159 293.203C308.164 293.405 308.222 293.603 308.328 293.78L311.63 300.247C312.009 300.857 313.373 301.284 314.933 301.279C316.691 301.279 318.152 300.752 318.299 300.076L321.475 293.894Z" fill="#3F3D56"/>
<path d="M343.307 294.333C341.294 293.548 337.633 293.589 335.981 294.333C335.731 294.432 335.489 294.547 335.255 294.677L325.728 299.726C325.081 300.126 325.233 300.655 326.091 300.984C327.219 301.355 328.441 301.381 329.585 301.057L342.202 297.502C342.567 297.414 342.928 297.308 343.282 297.184C345.269 296.554 345.292 295.132 343.307 294.333Z" fill="#3F3D56"/>
<path d="M355.794 300.93C355.794 300.144 353.435 299.515 351.683 299.679L339.629 301.183C338.908 301.279 338.373 301.501 338.373 301.853C338.373 302.205 339.159 302.45 339.984 302.45H352.763C354.414 302.45 355.794 301.929 355.794 300.93Z" fill="#3F3D56"/>
<path d="M290.78 301.183L278.544 299.68C276.787 299.515 274.497 300.181 274.497 300.967C274.497 301.753 275.855 302.454 277.464 302.454H290.243C291.132 302.454 291.958 302.222 291.958 301.857C291.958 301.491 291.577 301.279 290.78 301.183Z" fill="#3F3D56"/>
<path d="M304.239 300.983C305.132 300.648 305.237 300.143 304.602 299.734L295.068 294.714C294.836 294.581 294.594 294.467 294.342 294.371C291.971 293.588 289.39 293.588 287.018 294.371C286.934 294.403 286.852 294.436 286.774 294.47C284.977 295.249 285.086 296.468 287.018 297.193C287.373 297.322 287.737 297.429 288.107 297.511L300.728 301.052C301.877 301.376 303.105 301.351 304.239 300.983Z" fill="#3F3D56"/>
<path d="M340.923 292.847C340.923 311.55 329.938 311.896 316.387 311.896C302.836 311.896 280.588 308.196 291.851 292.847C303.73 276.659 324.109 245.803 316.387 244.168C316.387 244.168 340.923 274.145 340.923 292.847Z" fill="#F9A825"/>
<path opacity="0.5" d="M325.028 304.356C325.028 311.759 320.68 311.896 315.316 311.896C309.952 311.896 301.146 310.431 305.604 304.356C310.306 297.948 318.373 285.734 315.316 285.087C315.316 285.087 325.028 296.953 325.028 304.356Z" fill="#FF6584"/>
<path d="M303.169 249.419V252.763C303.167 254.288 302.553 255.755 301.452 256.865C300.35 257.976 298.844 258.646 297.24 258.741L229.478 262.659C228.625 262.709 227.77 262.593 226.965 262.319C226.16 262.046 225.422 261.62 224.796 261.067C224.171 260.515 223.67 259.847 223.324 259.105C222.978 258.363 222.795 257.562 222.786 256.751L222.622 243.008L263.612 242.377L303.169 249.419Z" fill="#3F3D56"/>
<path d="M292.119 265.984L261.549 250.918C261.408 250.849 261.284 250.752 261.185 250.633C261.087 250.515 261.016 250.378 260.978 250.231L254.347 224.871C253.962 223.4 254.17 221.845 254.929 220.511C255.689 219.178 256.946 218.161 258.454 217.66L260.052 217.129C260.408 217.011 260.786 216.963 261.162 216.989C261.538 217.015 261.905 217.114 262.239 217.28C262.574 217.446 262.869 217.675 263.106 217.953C263.343 218.232 263.518 218.553 263.619 218.898L270.155 241.226C270.216 241.434 270.344 241.621 270.52 241.759L295.427 261.341C295.642 261.51 295.783 261.749 295.822 262.012C295.86 262.274 295.795 262.54 295.637 262.759L293.559 265.641C293.404 265.855 293.172 266.008 292.907 266.071C292.642 266.135 292.362 266.103 292.119 265.984Z" fill="#E6E6E6"/>
<path d="M271.98 226.53C257.153 219.123 241.633 215.404 224.997 217.614C230.012 209.55 233.736 202.094 233.487 196.513C233.38 194.72 233.738 192.929 234.53 191.297C235.322 189.665 236.524 188.243 238.029 187.154C240.453 185.449 243.39 184.529 246.406 184.531C249.1 183.391 252.152 183.276 254.932 184.209C256.113 184.631 257.186 185.284 258.082 186.126C258.978 186.968 259.677 187.98 260.132 189.095C260.701 190.403 261.925 191.548 263.702 192.557C265.347 193.46 266.687 194.789 267.566 196.388C268.736 198.597 268.816 200.821 267.283 203.067C273.024 208.79 273.04 217.389 271.98 226.53Z" fill="#2F2E41"/>
<path d="M250.961 207.994C256.697 207.994 261.347 203.582 261.347 198.139C261.347 192.697 256.697 188.285 250.961 188.285C245.226 188.285 240.576 192.697 240.576 198.139C240.576 203.582 245.226 207.994 250.961 207.994Z" fill="#FFB8B8"/>
<path d="M255.907 219.491L243.79 220.664C244.441 213.942 244.697 207.739 243.79 203.066H255.907C253.606 210.506 253.808 215.808 255.907 219.491Z" fill="#FFB8B8"/>
<path d="M262.397 219.236C262.388 220.267 262.364 221.286 262.328 222.294C262.075 229.509 261.119 236.004 258.511 240.788C257.982 241.778 257.349 242.716 256.623 243.586C256.618 243.595 256.611 243.603 256.603 243.61C256.553 243.676 256.498 243.739 256.439 243.798C255.906 244.426 255.314 245.007 254.669 245.534L249.708 250.472L249.48 250.698L248.032 251.615L240.577 256.328L222.672 247.199L222.652 245.614L222.632 243.991C226.613 238.638 229.096 231.677 230.673 223.752C231.104 221.584 231.471 219.34 231.783 217.035C231.996 215.441 232.185 213.813 232.348 212.162C232.373 211.656 232.554 211.167 232.869 210.756C232.869 210.755 232.869 210.755 232.869 210.754C232.869 210.754 232.87 210.753 232.87 210.753C232.87 210.752 232.871 210.752 232.872 210.752C232.872 210.751 232.873 210.751 232.874 210.751C233.637 209.83 235.154 209.848 236.988 209.754C239.561 209.623 242.094 208.357 244.369 209.552C244.425 209.577 244.48 209.605 244.532 209.637L251.21 216.673L254.278 213.536L254.422 213.39L260.742 215.958C261.388 216.223 261.912 216.701 262.216 217.303C262.52 217.906 262.585 218.592 262.397 219.236Z" fill="#E6E6E6"/>
<path d="M248.305 253.822C248.305 255.021 248.066 256.21 247.601 257.326L245.767 261.719L229.478 262.659C229.305 262.669 229.131 262.673 228.962 262.673C227.324 262.64 225.765 262.003 224.612 260.898C223.46 259.793 222.805 258.306 222.786 256.752L222.672 247.199L222.652 245.614L228.581 247.999L234.361 245.054C234.676 244.926 234.999 244.816 235.327 244.725C235.755 244.596 236.193 244.497 236.636 244.429H236.641C236.854 244.396 237.067 244.367 237.28 244.349C239.73 244.116 242.185 244.747 244.176 246.122C245.339 246.921 246.305 247.952 247.006 249.142C247.06 249.223 247.108 249.308 247.15 249.395C247.544 250.096 247.84 250.842 248.032 251.616C248.212 252.338 248.304 253.079 248.305 253.822Z" fill="#2F2E41"/>
<path opacity="0.2" d="M243.667 225.708L245.833 235.141L258.998 245.887L247.376 234.625L243.667 225.708Z" fill="black"/>
<path opacity="0.2" d="M231.55 230.166L235.507 245.417L247.129 249.406L236.249 244.244L231.55 230.166Z" fill="black"/>
<path d="M263.449 198.726C255.795 195.384 247.141 194.432 239.463 198.022L240.452 189.575L257.267 186.994L263.449 198.726Z" fill="#2F2E41"/>
<path d="M324.98 272.95L268.694 263.775L269.384 260.549L324.98 272.95Z" fill="#3F3D56"/>
<path d="M278.083 265.791C277.629 266.194 277.083 266.492 276.487 266.661C275.891 266.831 275.263 266.867 274.65 266.768C274.037 266.669 273.456 266.436 272.954 266.088C272.451 265.741 272.04 265.288 271.753 264.764L268.024 257.97L269.507 254.92L277.502 259.775C278.019 260.089 278.454 260.511 278.773 261.009C279.093 261.507 279.288 262.068 279.344 262.648C279.4 263.228 279.315 263.813 279.097 264.358C278.878 264.902 278.532 265.393 278.083 265.791Z" fill="#FFB8B8"/>
<path d="M266.897 258.944L236.326 243.879C236.185 243.809 236.061 243.712 235.963 243.594C235.865 243.475 235.794 243.338 235.756 243.192L229.124 217.832C228.74 216.36 228.947 214.806 229.707 213.472C230.467 212.138 231.723 211.121 233.232 210.62L234.829 210.09C235.185 209.971 235.563 209.924 235.94 209.95C236.316 209.976 236.683 210.075 237.017 210.24C237.352 210.406 237.647 210.635 237.884 210.914C238.121 211.192 238.296 211.514 238.397 211.859L244.933 234.186C244.994 234.395 245.121 234.581 245.297 234.719L270.205 254.302C270.42 254.471 270.561 254.71 270.599 254.972C270.638 255.234 270.572 255.501 270.415 255.719L268.336 258.602C268.182 258.816 267.95 258.969 267.685 259.032C267.42 259.095 267.139 259.064 266.897 258.944Z" fill="#E6E6E6"/>
<path d="M318.913 274.62C319.183 274.671 319.463 274.617 319.692 274.472C319.921 274.328 320.081 274.103 320.136 273.847L320.699 271.168C320.754 270.912 320.698 270.645 320.545 270.428C320.392 270.21 320.155 270.059 319.884 270.008L311.714 268.458C311.444 268.408 311.164 268.461 310.935 268.606C310.705 268.751 310.546 268.976 310.492 269.232L309.928 271.91C309.901 272.037 309.901 272.168 309.927 272.295C309.954 272.422 310.006 272.543 310.082 272.651C310.158 272.759 310.255 272.851 310.368 272.923C310.482 272.995 310.609 273.045 310.743 273.071L318.913 274.62Z" fill="#E6E6E6"/>
</g>
<defs>
<clipPath id="clip0_26_93">
<rect width="465.464" height="341.944" fill="white" transform="translate(5.09633)"/>
</clipPath>
</defs>
</svg>
